<?xml version="1.0" encoding="UTF-8" standalone="no"?>
<svg
   version="1.0"
   width="314.5pt"
   height="753.77423pt"
   viewBox="0 0 314.5 753.77423"
   preserveAspectRatio="xMidYMid"
   id="svg14"
   xmlns="http://www.w3.org/2000/svg"
   xmlns:svg="http://www.w3.org/2000/svg">
  <defs
     id="defs14" />
  <g
     transform="matrix(0.1,0,0,-0.1,-376.99998,942.8242)"
     fill="#000000"
     stroke="none"
     id="g14">
    <path
       d="m 4550,9420 c -204,-6 -223,-11 -246,-66 -8,-19 -20,-34 -27,-34 -6,0 -34,11 -62,25 -72,37 -134,20 -175,-48 -24,-39 -25,-78 -4,-118 8,-17 13,-33 10,-36 -2,-3 -12,9 -20,26 -15,29 -26,31 -58,14 -5,-2 1,-22 12,-43 19,-38 81,-90 107,-90 7,0 36,-46 65,-102 l 52,-103 4,-168 c 2,-92 1,-178 -2,-190 -3,-13 -51,-63 -107,-112 -119,-104 -139,-132 -139,-198 0,-89 39,-133 151,-169 52,-16 69,-26 69,-40 0,-15 -9,-18 -54,-18 -37,0 -75,-9 -122,-29 -38,-16 -104,-43 -147,-61 l -78,-32 3,-312 3,-311 28,-57 c 39,-79 96,-147 166,-198 l 61,-45 -1,-1890 V 3125 l -135,-113 -134,-113 1,-382 v -382 l 27,-21 c 15,-12 86,-62 159,-112 l 132,-90 188,-11 c 240,-14 840,-14 1088,0 l 190,10 113,76 c 62,41 135,93 162,114 l 50,39 v 378 378 l -121,105 -120,104 v 1904 l 1,1904 23,15 c 44,29 132,129 155,175 l 23,47 h 87 c 220,1 438,96 596,260 38,39 70,70 73,70 11,0 149,-124 160,-144 10,-16 12,-362 13,-1513 V 4330 h -95 -95 v -55 -55 l 168,2 167,3 v 1580 c 0,1537 -1,1581 -19,1619 -12,23 -57,69 -117,120 l -97,81 15,35 c 67,151 91,361 59,521 -60,294 -267,541 -541,645 -87,32 -144,45 -239,53 l -79,6 -58,213 c -58,213 -66,234 -100,253 -17,8 -953,82 -989,77 -8,-1 -98,-5 -200,-8 z m 33,-67 c -100,-3 -123,-6 -123,-18 0,-11 -13,-15 -55,-15 -56,0 -65,6 -43,28 9,9 60,11 178,10 152,-2 156,-3 43,-5 z m 1499,-622 c 269,-69 487,-294 544,-561 21,-100 14,-278 -16,-372 -11,-37 -25,-70 -30,-73 -6,-3 -95,64 -200,151 -187,154 -189,156 -168,173 16,14 19,24 14,44 -5,23 -12,27 -44,27 h -37 l -103,308 c -56,169 -102,311 -102,315 0,13 65,7 142,-12 z M 4206,8192 c 0,-48 -3,-87 -6,-86 -32,3 -103,30 -116,45 -23,25 -13,44 55,103 36,32 56,44 61,36 4,-6 7,-51 6,-98 z m 1580,-138 c 6,-8 27,-14 47,-14 19,0 42,-3 51,-6 13,-5 12,-9 -6,-24 -20,-15 -21,-21 -10,-44 7,-17 20,-26 34,-26 22,-1 22,-1 4,-15 -11,-8 -30,-15 -43,-15 -16,0 -23,-6 -23,-20 0,-18 7,-20 71,-20 69,0 72,1 104,36 19,20 38,35 43,33 19,-7 432,-363 432,-372 0,-5 -31,-40 -69,-77 -127,-126 -288,-198 -458,-208 l -93,-5 v 275 275 l -152,65 -153,65 -12,53 c -6,30 -10,56 -8,59 2,4 54,5 117,3 83,-3 116,-7 124,-18 z M 4518,6121 c 54,-28 118,-102 138,-163 22,-68 16,-187 -14,-244 -69,-135 -217,-186 -341,-119 -79,44 -131,123 -146,226 -8,57 16,159 50,211 70,106 204,145 313,89 z m 818,14 c 69,-20 118,-65 155,-140 27,-55 31,-75 31,-140 0,-65 -4,-85 -32,-141 -128,-260 -483,-161 -483,136 0,134 84,254 203,291 39,12 72,10 126,-6 z M 4482,5094 c 67,-22 122,-75 159,-150 99,-201 -31,-428 -236,-412 -71,6 -111,24 -161,75 -121,120 -119,341 4,443 70,59 147,74 234,44 z m 886,-10 c 202,-101 208,-429 9,-529 -100,-49 -216,-28 -289,53 -48,53 -64,85 -76,152 -42,229 167,418 356,324 z M 4508,4044 c 118,-59 189,-207 162,-338 -23,-112 -113,-200 -217,-212 -144,-18 -282,108 -299,274 -23,214 173,366 354,276 z m 867,7 c 162,-75 200,-321 73,-466 -51,-58 -105,-86 -179,-92 -49,-5 -67,-2 -113,21 -126,62 -181,200 -137,344 50,165 219,257 356,193 z"
       id="path1" />
  </g>
</svg>
